PathFileType	4	(X/Y/Z)	38_2_101_p1_0-294.trc
DataRate	CameraRate	NumFrames	NumMarkers	Units	OrigDataRate	OrigDataStartFrame	OrigNumFrames
59.0	59.0	5	27	m	59.0	0	295
Frame#	Time	RHip			RKnee			RAnkle			RBigToe			RSmallToe			RHeel			LHip			LKnee			LAnkle			LBigToe			LSmallToe			LHeel			Neck			Head			Nose			RShoulder			RElbow			RWrist			RThumb			RIndex			RPinky			LShoulder			LElbow			LWrist			LThumb			LIndex			LPinky			
		X1	Y1	Z1	X2	Y2	Z2	X3	Y3	Z3	X4	Y4	Z4	X5	Y5	Z5	X6	Y6	Z6	X7	Y7	Z7	X8	Y8	Z8	X9	Y9	Z9	X10	Y10	Z10	X11	Y11	Z11	X12	Y12	Z12	X13	Y13	Z13	X14	Y14	Z14	X15	Y15	Z15	X16	Y16	Z16	X17	Y17	Z17	X18	Y18	Z18	X19	Y19	Z19	X20	Y20	Z20	X21	Y21	Z21	X22	Y22	Z22	X23	Y23	Z23	X24	Y24	Z24	X25	Y25	Z25	X26	Y26	Z26	X27	Y27	Z27	
0	0.0	0.38691421986504576	0.789164494520269	0.5752891208756759	0.3567203970254593	0.8917601156067819	0.9556311379237578	0.36326572771856097	1.0480539591407356	1.357897490870077	0.33018616596837475	0.8840396474455213	1.4315986459992776	0.40081878065471527	0.878696156220077	1.4301350229303647	0.347929292847671	1.1580813739197287	1.4056876895925003	0.17202371738172914	0.8316819775765802	0.5561281947884753	0.16765774641119405	0.9376138316003931	0.9401843374770825	0.16352436112414973	1.0609284262990428	1.3355598776189974	0.15741891479914488	0.8691007128852622	1.4033676945765612	0.10700547396210047	0.93586155113792	1.4071013171462718	0.19953772761494817	1.1372043286389295	1.3905847925964843	0.2802813656122629	0.6159065345553926	0.0069734310229540445	0.27527277380790527	0.4993081836232842	-0.2213983971282345	0.2579313614882503	0.4750652961973142	-0.0829771604848337	0.4533758710782572	0.6385357341256264	0.09579563601976003	0.4741564673721477	0.7073726472544006	0.38067312606380904	0.3659558195700508	0.6216669348425263	0.6085315448128751	0.29920272178258467	0.7208813008202406	0.6916408259945491	0.30414446897203634	0.7356593921197506	0.7048675768458924	0.32460362281513305	0.7405729442237137	0.7239236346046195	0.12866812723917995	0.6786972016160742	0.0732159403021752	0.06754626542448752	0.7320746659211056	0.3112775884015674	0.1917424282963807	0.5760329454904406	0.41006847543439895	0.2681516988227954	0.5331029852408343	0.46435660563402453	0.2746518387486765	0.4920198624846877	0.4652266858764783	0.21415890949227726	0.538872036285496	0.4897959617424069
1	0.01694915254237288	0.3859866535907516	0.7868282586987662	0.5708352648310283	0.3621856219849076	0.9055592692339742	0.9586455522089278	0.3633838778304631	1.048406073003064	1.3579782492904822	0.3249051245103823	0.8703912240432765	1.427371060047274	0.40057109282432946	0.8784688184793048	1.430224934707951	0.35414182666739125	1.1744476353988496	1.4103249214510827	0.1713191473354757	0.8279120900231233	0.5511434626733893	0.16746632390562927	0.9376578514341933	0.9402746618966685	0.16350888111071707	1.0612678197722079	1.3356866192891863	0.16173920392432603	0.8835700341675146	1.4077444483837016	0.11167238852910924	0.9511917892754488	1.411624489474137	0.20311643882333486	1.1556616269344597	1.4015028400674248	0.2802675320083077	0.6157830452302678	0.006940911916681891	0.27137524847199157	0.4903096217947934	-0.21583547765909059	0.25790268865705357	0.4751228481515918	-0.08295727909079778	0.4531680551025192	0.6383029668644655	0.09571318397896648	0.4742541382710742	0.7073299468878905	0.38457058228025726	0.3666504880789506	0.6201239618623005	0.601261268642518	0.2932154610822399	0.7098550876037439	0.6936196686739435	0.29881656658629696	0.7240909576749969	0.7078426105849353	0.326343465764971	0.7223058779839804	0.7174332966797189	0.13284621660321583	0.6903578652129214	0.07160613819374728	0.06755997592830262	0.7302918628152831	0.30387634510373174	0.193587883905136	0.5306863808490638	0.39185614179530537	0.2747984612053904	0.5136001408723981	0.4447065204361552	0.28007185780192806	0.4898380816982165	0.45197139949021115	0.21916806418455237	0.5352774244403533	0.466527911577494
2	0.03389830508474576	0.3864853710943999	0.7864802173941154	0.5635222285470178	0.35547647355452816	0.8890030168679387	0.9525081518368355	0.36822302836086646	1.0494890693228214	1.3583667674980149	0.32487579953940354	0.870533088283325	1.427509542850111	0.4006690060877862	0.8785773691937253	1.4302371325577847	0.35275131406739746	1.1596676168307578	1.4062843040856543	0.1736016271349441	0.8040680745419232	0.5371670339823346	0.16742964515075728	0.9373422832854598	0.9399342121804911	0.16343215952526885	1.0612408435430358	1.335496587617066	0.161831808157611	0.8835767282188773	1.4076872025383087	0.11167870780108478	0.9509927774502109	1.4114636305159831	0.20195633228795132	1.1526939579083693	1.3973482839261513	0.2803281923898692	0.6155522894598295	0.007112658278594854	0.27558135743553674	0.5010517927436944	-0.21842844865257588	0.2578742627518178	0.47511863721411207	-0.08286481951173538	0.45311704531972763	0.6383905155716036	0.09563926428751314	0.472649921879695	0.7218172054768487	0.3841749367326091	0.37175287550775493	0.6328113958378967	0.6020686000834361	0.2890924079993571	0.7102076136498257	0.6934480138690663	0.29798406040024084	0.7255814809683288	0.7114152748594751	0.33044442390664586	0.7220729798383954	0.717730667149388	0.12863571139022364	0.6785088666521314	0.07304598493127494	0.06670304912334937	0.7110377114586744	0.297772289486709	0.19208416509238524	0.513967523084339	0.3733890820083287	0.27577832873129887	0.486760008503979	0.3940043516213331	0.2770190409913352	0.4760747785976884	0.4000829623854685	0.2136434897259899	0.5175980056997505	0.44767692424940575
3	0.05084745762711865	0.3848673318017715	0.7829201866508196	0.5554034921886081	0.35546144565145316	0.8888086890478086	0.9520857398448952	0.3631679905022287	1.0478889795126796	1.35788442186581	0.32494473020331427	0.870984214728537	1.4276906668910463	0.39551091742480887	0.8655340944343997	1.4262273342321754	0.35271562966399367	1.159670772978411	1.4063173520844352	0.18054017801997235	0.7861216306381373	0.5276695440891355	0.16737121865794108	0.937246483941411	0.9395870157307858	0.16346010896654498	1.06128351895001	1.3355286620534081	0.16174060126953058	0.8834421508064023	1.4077625934502507	0.11186367829305668	0.9512827213039621	1.4117245480735099	0.20203780322696446	1.1528622440627543	1.3973360078162433	0.28038267463349287	0.6154823062949377	0.00716209575512459	0.27141009295289037	0.49034614767465223	-0.21581065831775048	0.2579556251286238	0.47541978125359347	-0.0795890756368971	0.453053426917468	0.6386133482184289	0.09555922566991612	0.4728783207959178	0.7212764758802028	0.3840352405964834	0.3723415969257642	0.6321823579883952	0.59834327940934	0.28364741092068685	0.6974643643548838	0.6929135471687488	0.29775007332892256	0.7257429690600068	0.7116578227338981	0.32992388904214653	0.7239972703024488	0.7215585001203986	0.12868256986147386	0.6782572165886777	0.07302607748719055	0.06874334990509527	0.7031592750289971	0.29495773333338354	0.18856674440583807	0.4888189236866581	0.3457795016089967	0.2742444748368711	0.4498344815094866	0.3797999146099903	0.2750577436752517	0.4505520489860518	0.37806979925372364	0.2064893722692576	0.4571470549104264	0.4111382947268347
4	0.06779661016949153	0.3844624765981609	0.7825882918930112	0.5554788178290112	0.3554889786289937	0.8887696952967467	0.9517275637341563	0.3680988369784117	1.0493061841551625	1.3582981528155742	0.32471531110960283	0.8706270971416477	1.4275626971815398	0.3952810290032683	0.864748107349588	1.4259275679469126	0.3527307760709515	1.159688437624547	1.4062487335764413	0.17657488772427576	0.7862442313619669	0.527798124702385	0.16803064123956257	0.9356167723649915	0.9353732199475662	0.16769889419900408	1.0631586320805684	1.3320743232587837	0.15751524326846067	0.8688905345607041	1.403118383055992	0.1107970095113218	0.9193896110125519	1.4022414358905628	0.20374163254359112	1.1508148191415806	1.3916617416909292	0.28028189636513406	0.6158357774524883	0.0070584329159719215	0.27138648229408857	0.4904248528197028	-0.21584939581824983	0.25791578107015223	0.4753417584675418	-0.07955302366091373	0.45293182418981864	0.6387498451340928	0.09558845308011492	0.4773008701875428	0.7215419322144392	0.3799532019155892	0.37255915164889647	0.6327510967306271	0.598489804001157	0.2887901414119769	0.7103828890136834	0.693957268187994	0.29774661583194134	0.7258705369436458	0.7115530518561992	0.3295604973149952	0.7242641025764285	0.7213997285616531	0.12859359805371556	0.6779871482907927	0.06919874421859169	0.07283565085495819	0.6926051552961008	0.30248552517264804	0.17102106881779428	0.4737004952273995	0.32803115086028545	0.2547927324348062	0.4270840843309403	0.3332484781951335	0.24236417459500867	0.4036480532515389	0.3525635048859852	0.20992136863331162	0.47568314316983057	0.3778247594093026
